<?xml version="1.0" encoding="UTF-8" standalone="no"?>
<svg
   xmlns:dc="http://purl.org/dc/elements/1.1/"
   xmlns:cc="http://creativecommons.org/ns#"
   xmlns:rdf="http://www.w3.org/1999/02/22-rdf-syntax-ns#"
   xmlns:svg="http://www.w3.org/2000/svg"
   xmlns="http://www.w3.org/2000/svg"
   id="svg8"
   version="1.1"
   viewBox="0 0 84.999977 53.000381"
   height="53.000381mm"
   width="84.999977mm">
  <defs
     id="defs2" />
  <metadata
     id="metadata5">
    <rdf:RDF>
      <cc:Work
         rdf:about="">
        <dc:format>image/svg+xml</dc:format>
        <dc:type
           rdf:resource="http://purl.org/dc/dcmitype/StillImage" />
        <dc:title></dc:title>
      </cc:Work>
    </rdf:RDF>
  </metadata>
  <g
     id="silkscreen0">
    <path
       id="path828"
       transform="matrix(0.26458333,0,0,0.26458333,-125.00012,-121.99979)"
       d="m 558.35938,461.10156 c -5.72162,0 -10.32813,4.60651 -10.32813,10.32813 v 66.77539 h -71.87109 c -2.06055,0 -3.71875,1.6582 -3.71875,3.71875 v 38.67187 c 0,2.06055 1.6582,3.71875 3.71875,3.71875 h 71.87109 v 66.77539 c 0,5.72162 4.60651,10.32813 10.32813,10.32813 h 225.01367 c 5.72161,0 10.32812,-4.60651 10.32812,-10.32813 V 580.5957 541.92383 471.42969 c 0,-5.72162 -4.60651,-10.32813 -10.32812,-10.32813 z"
       style="fill:none;fill-opacity:1;stroke:#ffffff;stroke-width:0.37795275;stroke-miterlimit:4;stroke-dasharray:none;stroke-opacity:1" />
  </g>
  <g
     style="display:inline"
     id="silkscreen">
    <path
       style="fill:none;fill-opacity:1;stroke:#ffffff;stroke-width:0.37795275;stroke-miterlimit:4;stroke-dasharray:none;stroke-opacity:1"
       d="m 558.35938,461.10156 c -5.72162,0 -10.32813,4.60651 -10.32813,10.32813 v 66.77539 h -71.87109 c -2.06055,0 -3.71875,1.6582 -3.71875,3.71875 v 38.67187 c 0,2.06055 1.6582,3.71875 3.71875,3.71875 h 71.87109 v 66.77539 c 0,5.72162 4.60651,10.32813 10.32813,10.32813 h 225.01367 c 5.72161,0 10.32812,-4.60651 10.32812,-10.32813 V 580.5957 541.92383 471.42969 c 0,-5.72162 -4.60651,-10.32813 -10.32812,-10.32813 z"
       transform="matrix(0.26458333,0,0,0.26458333,-125.00012,-121.99979)"
       id="path821" />
  </g>
  <g
     style="display:inline"
     transform="translate(-125.00012,-121.99979)"
     id="board">
    <path
       id="rect815"
       transform="scale(0.26458333)"
       d="m 558.35938,461.10156 c -5.72162,0 -10.32813,4.60651 -10.32813,10.32813 v 66.77539 h -71.87109 c -2.06055,0 -3.71875,1.6582 -3.71875,3.71875 v 38.67187 c 0,2.06055 1.6582,3.71875 3.71875,3.71875 h 71.87109 v 66.77539 c 0,5.72162 4.60651,10.32813 10.32813,10.32813 h 225.01367 c 5.72161,0 10.32812,-4.60651 10.32812,-10.32813 V 580.5957 541.92383 471.42969 c 0,-5.72162 -4.60651,-10.32813 -10.32812,-10.32813 z"
       style="fill:#ffff00;fill-opacity:1;stroke:none;stroke-width:0.09509473;stroke-miterlimit:4;stroke-dasharray:none;stroke-opacity:1" />
  </g>
</svg>
