<?xml version="1.0" encoding="UTF-8" standalone="no"?>
<svg
   xmlns:dc="http://purl.org/dc/elements/1.1/"
   xmlns:cc="http://creativecommons.org/ns#"
   xmlns:rdf="http://www.w3.org/1999/02/22-rdf-syntax-ns#"
   xmlns:svg="http://www.w3.org/2000/svg"
   xmlns="http://www.w3.org/2000/svg"
   id="svg8"
   version="1.1"
   viewBox="0 0 85.047913 53.000225"
   height="53.000225mm"
   width="85.047913mm">
  <defs
     id="defs2" />
  <metadata
     id="metadata5">
    <rdf:RDF>
      <cc:Work
         rdf:about="">
        <dc:format>image/svg+xml</dc:format>
        <dc:type
           rdf:resource="http://purl.org/dc/dcmitype/StillImage" />
        <dc:title></dc:title>
      </cc:Work>
    </rdf:RDF>
  </metadata>
  <g
     style="display:inline"
     id="silkscreen0">
    <path
       transform="scale(0.26458333)"
       style="display:inline;fill:none;fill-opacity:0.78431373;stroke:#ffffff;stroke-width:0.37795275;stroke-miterlimit:4;stroke-dasharray:none;stroke-opacity:1"
       d="m 84.689453,0.1640625 c -4.900108,0 -8.84375,3.9456212 -8.84375,8.8457031 V 29.371094 H 67.839844 V 9.375 c 0,-5.0878866 -3.827876,-9.18554688 -8.583985,-9.18554688 H 8.7734375 c -4.7561008,0 -8.58398438,4.09766028 -8.58398438,9.18554688 v 49.283203 c 0,5.087925 3.82788358,9.183594 8.58398438,9.183594 H 59.255859 c 4.756109,0 8.583985,-4.095669 8.583985,-9.183594 V 38.662109 h 8.005859 V 77.175781 H 5.2460938 c -2.8159408,0 -5.0820313,2.268048 -5.0820313,5.083985 v 35.796874 c 0,2.81594 2.2660905,5.08398 5.0820313,5.08398 H 75.845703 v 38.51563 h -8.005859 v -19.99609 c 0,-5.08793 -3.827876,-9.18555 -8.583985,-9.18555 H 8.7734375 c -4.7561008,0 -8.58398438,4.09762 -8.58398438,9.18555 v 49.2832 c 0,5.08792 3.82788358,9.18359 8.58398438,9.18359 H 59.255859 c 4.756109,0 8.583985,-4.09567 8.583985,-9.18359 v -19.99609 h 8.005859 v 20.35937 c 0,4.90012 3.943642,8.8457 8.84375,8.8457 H 312.3418 c 4.90012,0 8.8457,-3.94558 8.8457,-8.8457 v -72.31055 c 0.0563,-0.30463 0.0898,-0.61804 0.0898,-0.93945 V 82.259766 c 0,-0.32126 -0.0339,-0.634899 -0.0898,-0.939454 V 9.0097656 c 0,-4.9000819 -3.94558,-8.8457031 -8.8457,-8.8457031 z"
       id="path824" />
  </g>
  <g
     style="display:inline"
     id="silkscreen">
    <path
       transform="scale(0.26458333)"
       style="display:inline;fill:none;fill-opacity:0.78431373;stroke:#ffffff;stroke-width:0.37795275;stroke-miterlimit:4;stroke-dasharray:none;stroke-opacity:1"
       d="m 84.689453,0.1640625 c -4.900108,0 -8.84375,3.9456212 -8.84375,8.8457031 V 29.371094 H 67.839844 V 9.375 c 0,-5.0878866 -3.827876,-9.18554688 -8.583985,-9.18554688 H 8.7734375 c -4.7561008,0 -8.58398438,4.09766028 -8.58398438,9.18554688 v 49.283203 c 0,5.087925 3.82788358,9.183594 8.58398438,9.183594 H 59.255859 c 4.756109,0 8.583985,-4.095669 8.583985,-9.183594 V 38.662109 h 8.005859 V 77.175781 H 5.2460938 c -2.8159408,0 -5.0820313,2.268048 -5.0820313,5.083985 v 35.796874 c 0,2.81594 2.2660905,5.08398 5.0820313,5.08398 H 75.845703 v 38.51563 h -8.005859 v -19.99609 c 0,-5.08793 -3.827876,-9.18555 -8.583985,-9.18555 H 8.7734375 c -4.7561008,0 -8.58398438,4.09762 -8.58398438,9.18555 v 49.2832 c 0,5.08792 3.82788358,9.18359 8.58398438,9.18359 H 59.255859 c 4.756109,0 8.583985,-4.09567 8.583985,-9.18359 v -19.99609 h 8.005859 v 20.35937 c 0,4.90012 3.943642,8.8457 8.84375,8.8457 H 312.3418 c 4.90012,0 8.8457,-3.94558 8.8457,-8.8457 v -72.31055 c 0.0563,-0.30463 0.0898,-0.61804 0.0898,-0.93945 V 82.259766 c 0,-0.32126 -0.0339,-0.634899 -0.0898,-0.939454 V 9.0097656 c 0,-4.9000819 -3.94558,-8.8457031 -8.8457,-8.8457031 z"
       id="path821" />
  </g>
  <g
     style="display:inline"
     transform="translate(-34.597447,-129.49605)"
     id="board">
    <path
       id="rect1371"
       transform="matrix(0.26458333,0,0,0.26458333,34.597447,129.49605)"
       d="m 84.689453,0.1640625 c -4.900108,0 -8.84375,3.9456212 -8.84375,8.8457031 V 29.371094 H 67.839844 V 9.375 c 0,-5.0878866 -3.827876,-9.18554688 -8.583985,-9.18554688 H 8.7734375 c -4.7561008,0 -8.58398438,4.09766028 -8.58398438,9.18554688 v 49.283203 c 0,5.087925 3.82788358,9.183594 8.58398438,9.183594 H 59.255859 c 4.756109,0 8.583985,-4.095669 8.583985,-9.183594 V 38.662109 h 8.005859 V 77.175781 H 5.2460938 c -2.8159408,0 -5.0820313,2.268048 -5.0820313,5.083985 v 35.796874 c 0,2.81594 2.2660905,5.08398 5.0820313,5.08398 H 75.845703 v 38.51563 h -8.005859 v -19.99609 c 0,-5.08793 -3.827876,-9.18555 -8.583985,-9.18555 H 8.7734375 c -4.7561008,0 -8.58398438,4.09762 -8.58398438,9.18555 v 49.2832 c 0,5.08792 3.82788358,9.18359 8.58398438,9.18359 H 59.255859 c 4.756109,0 8.583985,-4.09567 8.583985,-9.18359 v -19.99609 h 8.005859 v 20.35937 c 0,4.90012 3.943642,8.8457 8.84375,8.8457 H 312.3418 c 4.90012,0 8.8457,-3.94558 8.8457,-8.8457 v -72.31055 c 0.0563,-0.30463 0.0898,-0.61804 0.0898,-0.93945 V 82.259766 c 0,-0.32126 -0.0339,-0.634899 -0.0898,-0.939454 V 9.0097656 c 0,-4.9000819 -3.94558,-8.8457031 -8.8457,-8.8457031 z"
       style="fill:#ffff00;fill-opacity:0.78431373;stroke:#ffffff;stroke-width:0.32755163;stroke-miterlimit:4;stroke-dasharray:none;stroke-opacity:1" />
  </g>
</svg>
